<?xml version="1.0" standalone="no"?>
<!DOCTYPE svg PUBLIC "-//W3C//DTD SVG 20010904//EN"
 "http://www.w3.org/TR/2001/REC-SVG-20010904/DTD/svg10.dtd">
<svg version="1.0" xmlns="http://www.w3.org/2000/svg"
 width="200.000000pt" height="200.000000pt" viewBox="0 0 200.000000 200.000000"
 preserveAspectRatio="xMidYMid meet">
<metadata>
Created by potrace 1.14, written by Peter Selinger 2001-2017
</metadata>
<g transform="translate(0.000000,200.000000) scale(0.100000,-0.100000)"
fill="#000000" stroke="none">
<path d="M870 1934 c-228 -42 -390 -123 -535 -269 -125 -124 -206 -269 -251
-445 -26 -102 -26 -345 -1 -440 40 -145 91 -252 175 -362 34 -45 36 -46 61
-34 41 21 95 27 140 17 51 -11 52 -6 4 16 -49 24 -79 69 -86 134 -6 47 -3 59
23 106 30 53 31 55 29 203 -1 144 0 150 26 194 29 50 30 91 5 152 -17 39 -8
75 29 117 16 18 45 73 65 122 l36 89 -29 31 c-33 35 -49 102 -31 135 11 21
119 76 219 111 78 27 247 40 367 28 128 -13 170 -22 277 -62 81 -29 94 -38
141 -92 69 -80 106 -137 116 -177 5 -18 15 -51 23 -73 23 -63 15 -220 -17
-335 -14 -52 -37 -136 -50 -187 -14 -50 -48 -137 -76 -193 -40 -79 -52 -116
-57 -166 -7 -77 2 -91 80 -124 29 -13 71 -35 93 -51 l42 -29 36 45 c56 68 123
181 150 254 51 135 60 188 61 346 0 160 -13 234 -62 359 -30 79 -102 198 -113
191 -6 -3 -7 1 -4 9 9 23 -158 184 -249 240 -158 98 -285 136 -477 141 -74 2
-146 2 -160 -1z"/>
<path d="M905 1790 c-44 -4 -99 -13 -123 -19 -66 -18 -220 -95 -199 -99 14 -3
16 -7 7 -17 -13 -16 -4 -39 11 -29 6 3 9 0 8 -7 -4 -24 12 -48 27 -42 9 3 12
0 9 -9 -5 -11 1 -14 26 -10 26 4 31 2 26 -11 -3 -9 -2 -17 3 -19 5 -2 11 -16
13 -33 3 -24 10 -32 38 -39 39 -12 58 -27 62 -53 1 -10 6 -24 10 -30 10 -16 6
-16 -27 -3 -22 8 -28 6 -38 -10 -7 -11 -22 -20 -34 -20 -12 0 -27 -7 -34 -15
-6 -8 -26 -14 -43 -14 -18 0 -45 -1 -61 -1 -16 0 -42 -10 -57 -21 -30 -21 -36
-46 -20 -77 28 -51 38 -83 34 -106 -7 -36 13 -26 55 27 l34 41 -5 -33 c-3 -18
-17 -46 -31 -60 -15 -15 -23 -30 -20 -34 4 -4 -2 -10 -12 -14 -10 -3 -25 -15
-32 -25 -17 -24 -43 -24 -36 0 5 14 4 15 -5 2 -15 -21 -14 -57 3 -72 9 -8 11
-21 6 -38 -4 -14 -10 -61 -14 -105 -5 -71 -5 -76 6 -46 7 19 19 36 25 39 8 2
3 -19 -12 -52 -14 -31 -20 -56 -15 -56 21 0 9 -41 -15 -52 -14 -6 -25 -15 -25
-20 0 -5 -4 -6 -10 -3 -16 10 -12 -72 5 -104 11 -22 48 -46 160 -101 80 -40
149 -79 153 -86 4 -7 5 -36 4 -64 -3 -41 -7 -49 -17 -40 -7 6 -16 34 -20 62
-8 56 -25 49 -25 -10 0 -25 8 -42 31 -63 38 -35 86 -49 164 -48 53 2 55 3 21
8 -22 3 -42 13 -44 21 -5 13 -3 13 11 1 14 -11 18 -11 23 3 4 11 -1 22 -12 31
-11 8 -15 15 -11 15 4 0 3 9 -3 20 -8 15 -8 20 1 20 7 0 9 3 6 7 -4 3 1 12 11
20 15 13 14 14 -11 10 -19 -3 -25 -1 -19 5 6 6 29 9 51 6 27 -2 41 0 41 8 0 7
6 15 13 17 9 4 8 8 -3 17 -13 10 -13 11 0 9 37 -4 42 1 38 37 -4 31 -1 38 21
47 38 16 60 37 55 52 -3 7 4 16 15 20 12 3 19 11 15 16 -3 5 10 16 30 24 49
21 58 43 13 36 -4 -1 -2 8 5 18 7 11 16 17 22 14 5 -3 6 -1 2 5 -4 6 -13 9
-21 5 -17 -6 -21 12 -5 22 6 3 10 14 10 23 0 11 -7 5 -20 -15 -12 -21 -26 -31
-39 -30 -12 1 -21 3 -21 5 0 3 16 27 35 53 36 51 37 62 1 31 -21 -17 -21 -17
-3 4 9 11 17 28 17 37 0 9 5 17 10 17 6 0 10 5 10 12 0 6 -13 -1 -30 -17 -28
-27 -45 -24 -17 4 10 10 8 11 -7 5 -17 -7 -19 -4 -13 37 5 41 1 72 -28 182
-11 39 -11 47 1 47 18 0 18 44 0 73 -14 21 -48 181 -48 220 1 10 -6 21 -14 24
-18 7 -18 30 0 40 13 7 12 12 -4 33 -13 17 -20 20 -20 10 -1 -26 -30 51 -30
80 0 39 28 48 114 36 39 -5 74 -14 78 -20 4 -6 25 -9 47 -7 26 1 41 -2 41 -9
0 -7 -8 -9 -19 -5 -11 3 -22 1 -26 -5 -3 -5 2 -10 12 -11 16 0 16 -1 -2 -10
-15 -7 -10 -8 19 -5 22 3 42 9 45 14 5 8 31 9 61 3 3 -1 -2 -6 -10 -11 -12 -7
-10 -11 10 -18 14 -5 27 -6 30 -2 6 9 45 6 73 -5 10 -4 17 -3 17 4 0 6 7 8 15
5 25 -10 7 -23 -26 -19 -26 4 -29 2 -19 -10 16 -20 1 -19 -30 1 l-25 16 23
-20 c22 -20 29 -34 14 -30 -11 4 -92 -34 -92 -43 0 -16 18 -18 30 -4 6 7 19
11 27 8 12 -5 15 -2 10 10 -3 9 -3 17 1 18 33 3 58 11 60 19 5 13 29 13 37 0
8 -13 -17 -38 -33 -32 -7 2 -10 -2 -6 -12 3 -9 10 -16 14 -16 4 0 11 -7 14
-16 4 -11 2 -15 -8 -11 -9 4 -17 -2 -21 -15 -8 -23 9 -47 19 -29 13 20 26 11
20 -13 -3 -15 -1 -27 8 -33 18 -11 48 -59 48 -75 0 -9 -3 -9 -10 2 -5 8 -10
11 -10 5 -1 -5 -10 6 -20 25 -17 30 -19 31 -16 10 6 -39 17 -60 27 -54 5 3 12
-2 15 -10 3 -9 10 -13 15 -10 5 3 5 -6 0 -19 -6 -14 -7 -29 -3 -33 4 -5 0 -3
-9 4 -14 11 -16 9 -11 -13 5 -31 21 -42 33 -24 4 7 11 10 16 6 4 -5 1 -12 -6
-17 -9 -5 -11 -15 -7 -26 6 -15 2 -14 -18 5 -14 14 -29 21 -33 18 -3 -4 -1 -7
5 -7 20 0 52 -63 52 -102 0 -20 -5 -49 -11 -65 -8 -21 -7 -25 1 -16 7 6 18 35
26 65 7 29 24 91 38 138 33 112 50 214 41 248 -5 15 -7 41 -6 58 1 18 -2 35
-7 38 -6 3 -13 25 -17 48 -10 55 -67 142 -130 199 -27 24 -44 36 -36 27 19
-25 8 -22 -35 7 -20 14 -45 25 -54 25 -10 0 -20 6 -23 14 -5 13 -97 41 -171
50 -35 5 -37 4 -20 -9 17 -13 17 -14 2 -15 -9 0 -23 7 -31 15 -19 19 -101 25
-202 15z m356 -45 c11 8 59 -17 53 -26 -3 -5 5 -9 18 -9 13 0 43 -14 68 -30
54 -36 42 -39 -19 -5 -52 30 -60 31 -37 6 11 -12 15 -25 10 -33 -6 -9 -3 -9
10 1 15 13 20 12 39 -9 12 -13 15 -18 6 -12 -9 7 -24 9 -33 6 -14 -5 -14 -9
-4 -23 7 -9 0 -5 -14 8 -15 13 -25 27 -23 31 3 5 -2 10 -10 13 -10 4 -12 1 -8
-11 5 -14 3 -15 -8 -4 -20 19 -28 15 -24 -14 l3 -27 -30 32 c-16 17 -34 31
-40 31 -7 0 -3 -7 8 -16 18 -14 18 -15 1 -10 -11 3 -30 9 -44 12 -22 6 -23 8
-8 16 15 9 14 11 -9 24 -15 7 -32 12 -39 10 -7 -1 -9 -1 -4 1 4 3 4 9 1 15 -3
5 17 -2 45 -16 28 -14 58 -26 68 -26 10 1 -8 14 -39 31 -32 16 -58 32 -58 35
0 2 9 0 19 -6 38 -20 71 -30 71 -20 0 5 -9 12 -20 15 -33 11 -22 24 11 15 18
-5 35 -7 40 -5z m-126 -65 c13 -6 15 -9 5 -9 -8 0 -22 4 -30 9 -18 12 -2 12
25 0z m370 -61 c20 -22 20 -22 0 -11 -11 5 -29 20 -40 33 -20 22 -20 22 0 11
11 -5 29 -20 40 -33z m-315 7 c0 -8 -51 -3 -56 5 -3 5 3 6 12 2 12 -5 15 -3 9
6 -6 10 -3 11 14 2 11 -7 21 -13 21 -15z m25 4 c3 -5 1 -10 -4 -10 -6 0 -11 5
-11 10 0 6 2 10 4 10 3 0 8 -4 11 -10z m96 -7 c13 -16 12 -17 -3 -4 -17 13
-22 21 -14 21 2 0 10 -8 17 -17z m43 -29 c5 -14 4 -15 -9 -4 -17 14 -19 20 -6
20 5 0 12 -7 15 -16z m161 -204 c3 -5 1 -10 -4 -10 -6 0 -11 5 -11 10 0 6 2
10 4 10 3 0 8 -4 11 -10z m-743 -42 c-7 -7 -12 -8 -12 -2 0 14 12 26 19 19 2
-3 -1 -11 -7 -17z m732 -62 c-3 -7 -12 -13 -21 -13 -14 0 -14 1 0 12 13 9 14
15 4 25 -10 12 -9 12 5 1 9 -7 15 -18 12 -25z m51 -125 c3 -5 2 -12 -3 -15 -5
-3 -9 1 -9 9 0 17 3 19 12 6z"/>
<path d="M1266 1705 c10 -8 24 -14 29 -14 6 0 1 6 -9 14 -11 8 -24 15 -30 15
-5 0 -1 -7 10 -15z"/>
<path d="M1260 1499 c0 -5 -5 -7 -10 -4 -14 9 -62 -23 -54 -36 4 -6 12 -5 22
3 14 11 14 9 0 -8 -10 -11 -18 -27 -18 -35 0 -12 2 -12 9 0 5 7 14 10 20 7 6
-4 11 -1 11 6 0 8 16 20 35 27 39 14 44 26 16 41 -25 13 -31 13 -31 -1z"/>
<path d="M1305 1457 c-72 -44 -83 -54 -75 -67 4 -7 6 -20 2 -28 -3 -10 -1 -13
7 -8 6 4 9 16 6 26 -4 12 1 19 16 23 13 4 18 10 13 18 -5 8 -2 11 8 6 10 -3
25 4 39 19 24 26 17 31 -16 11z"/>
<path d="M1348 1443 c7 -3 16 -2 19 1 4 3 -2 6 -13 5 -11 0 -14 -3 -6 -6z"/>
<path d="M1390 1394 c0 -5 7 -18 15 -28 12 -16 15 -17 15 -4 0 8 -7 21 -15 28
-8 7 -15 9 -15 4z"/>
<path d="M1390 1310 c0 -5 5 -10 11 -10 5 0 7 5 4 10 -3 6 -8 10 -11 10 -2 0
-4 -4 -4 -10z"/>
<path d="M1435 1229 c-4 -6 -5 -12 -2 -15 2 -3 7 2 10 11 7 17 1 20 -8 4z"/>
<path d="M1464 1154 c3 -8 6 -23 6 -32 0 -15 2 -15 10 -2 14 22 12 37 -6 44
-12 5 -15 2 -10 -10z"/>
<path d="M1384 1028 l-19 -21 28 18 c28 18 33 25 19 25 -5 0 -17 -10 -28 -22z"/>
<path d="M1457 1000 c29 -12 39 -52 26 -112 -5 -27 -6 -45 -1 -40 4 4 14 34
20 66 12 56 12 59 -11 77 -13 10 -31 19 -40 18 -11 0 -9 -3 6 -9z"/>
<path d="M1378 928 c-3 -7 0 -21 6 -30 8 -13 8 -23 -1 -37 -14 -22 -8 -31 23
-31 15 0 24 8 28 27 4 14 4 29 -1 32 -4 3 -13 15 -19 25 -13 25 -31 31 -36 14z"/>
<path d="M1429 793 c-13 -16 -12 -17 4 -4 16 13 21 21 13 21 -2 0 -10 -8 -17
-17z"/>
<path d="M1126 684 c-9 -8 -13 -20 -10 -25 7 -12 7 -11 23 19 14 26 9 28 -13
6z"/>
</g>
</svg>
