<?xml version="1.0" standalone="no"?>
<!DOCTYPE svg PUBLIC "-//W3C//DTD SVG 20010904//EN"
 "http://www.w3.org/TR/2001/REC-SVG-20010904/DTD/svg10.dtd">
<svg version="1.0" xmlns="http://www.w3.org/2000/svg"
 width="933.000000pt" height="933.000000pt" viewBox="0 0 933.000000 933.000000"
 preserveAspectRatio="xMidYMid meet">
<metadata>
Created by potrace 1.14, written by Peter Selinger 2001-2017
</metadata>
<g transform="translate(0.000000,933.000000) scale(0.100000,-0.100000)"
fill="#000000" stroke="none">
<path d="M4160 9302 c-36 -10 -70 -21 -76 -24 -6 -4 -41 -12 -79 -18 -38 -6
-96 -20 -130 -31 -33 -10 -71 -18 -85 -17 -14 1 -39 -5 -55 -15 -17 -9 -66
-27 -110 -40 -99 -31 -230 -93 -253 -121 -18 -22 -102 -66 -127 -66 -16 0
-115 -92 -115 -107 0 -6 -17 -29 -37 -51 -21 -22 -49 -59 -63 -82 -14 -24 -44
-62 -68 -84 l-42 -42 -5 -99 c-8 -146 -24 -293 -40 -350 -7 -27 -19 -79 -25
-114 -10 -58 -40 -135 -91 -234 -28 -55 -59 -180 -70 -282 -5 -49 -16 -130
-24 -180 -24 -140 -32 -272 -45 -665 -6 -201 -15 -374 -20 -386 -6 -15 -29
-27 -82 -44 -88 -28 -136 -57 -186 -112 -65 -72 -109 -218 -96 -324 11 -92 35
-187 63 -248 16 -34 36 -77 45 -98 9 -20 34 -108 56 -195 58 -229 86 -311 128
-373 59 -87 123 -120 234 -120 85 0 85 0 93 -275 6 -214 22 -370 45 -455 5
-19 18 -69 29 -110 45 -171 120 -398 165 -503 9 -21 54 -114 99 -205 46 -92
88 -186 95 -208 7 -24 12 -102 12 -186 0 -151 -9 -191 -48 -220 -10 -7 -61
-67 -114 -133 -150 -186 -177 -211 -253 -236 -36 -11 -67 -25 -71 -30 -3 -5
-12 -9 -21 -9 -43 0 -129 -66 -183 -139 -38 -53 -259 -271 -274 -271 -12 0
-86 -72 -86 -84 0 -3 -14 -25 -30 -48 -17 -24 -38 -54 -47 -68 -10 -14 -36
-50 -60 -80 -44 -57 -110 -188 -138 -275 -9 -27 -26 -70 -37 -95 -48 -101 -61
-166 -40 -191 9 -11 21 -19 27 -19 5 0 22 -13 38 -29 15 -15 43 -36 62 -47 19
-10 35 -22 35 -26 0 -5 4 -8 9 -8 5 0 58 -33 117 -74 110 -74 231 -148 326
-198 29 -15 54 -31 57 -36 14 -19 371 -186 371 -174 0 4 4 1 8 -6 11 -16 295
-122 346 -128 22 -3 45 -9 51 -13 31 -25 308 -96 327 -85 7 5 8 3 3 -6 -6 -10
-2 -12 15 -7 13 3 29 3 34 -2 27 -19 310 -65 539 -86 194 -17 587 -20 774 -4
151 12 368 42 508 70 145 28 279 62 283 71 2 5 8 6 13 3 11 -8 112 22 179 53
30 14 57 26 60 27 3 0 21 5 40 9 19 5 40 12 45 16 6 4 42 18 80 31 39 13 86
31 105 41 l35 17 -25 10 c-24 9 -24 9 7 8 17 -1 29 -6 25 -11 -3 -5 2 -6 12
-3 10 4 19 7 22 7 2 0 1 7 -2 15 -5 12 2 15 28 15 19 0 38 4 43 9 6 5 28 14
50 21 50 16 281 134 315 161 l25 20 -32 -15 c-38 -19 -43 -19 -43 -6 0 6 8 10
18 10 16 1 16 2 -1 15 -18 13 -18 14 0 24 11 5 25 6 32 2 11 -7 11 -10 0 -14
-8 -3 3 -6 24 -6 28 -1 37 3 37 15 0 11 6 15 20 11 11 -3 23 -1 26 4 3 5 -3 9
-13 9 -13 0 -10 5 12 20 35 23 33 24 -54 9 -64 -11 -121 -29 -121 -39 0 -3
-18 -5 -40 -4 -22 0 -40 -3 -40 -8 0 -4 -12 -8 -26 -8 -45 0 -11 26 69 51 40
12 76 26 82 31 5 4 19 8 30 8 12 0 47 13 78 29 31 16 55 25 51 20 -3 -5 2 -9
11 -9 8 0 18 7 21 15 5 11 10 13 19 5 9 -7 15 -8 19 -1 4 6 23 8 44 5 47 -6
125 25 96 38 -14 6 -12 7 9 5 20 -3 27 0 27 13 0 22 26 45 34 31 4 -5 -2 -14
-11 -20 -10 -6 -13 -11 -7 -11 7 0 22 11 35 25 13 13 31 25 39 25 27 1 -12 20
-40 20 -19 0 -22 -2 -10 -10 8 -5 11 -12 8 -15 -4 -4 -16 -1 -27 7 -12 8 -18
18 -14 21 3 4 -6 7 -20 7 -19 0 -27 5 -27 18 0 26 -20 42 -55 43 -28 1 -28 2
10 12 59 15 65 26 65 111 0 86 7 92 93 87 29 -2 47 1 47 8 0 6 -9 11 -20 11
-15 0 -20 7 -20 28 0 19 3 23 9 13 7 -11 13 -10 32 9 16 15 20 24 12 27 -22 8
-14 30 15 42 15 6 50 10 77 10 28 0 68 0 90 -1 22 0 41 5 43 11 2 6 21 11 43
11 31 0 39 4 39 19 0 10 -7 24 -15 31 -8 7 -15 19 -15 27 0 13 3 13 15 3 8 -7
28 -10 45 -8 27 4 31 1 39 -26 7 -27 12 -31 39 -30 27 2 32 -1 32 -22 0 -21
-4 -23 -29 -18 -26 6 -29 3 -35 -30 -7 -36 -20 -47 -29 -23 -3 7 -6 4 -6 -7
-1 -15 -6 -17 -35 -12 -42 8 -66 -1 -66 -25 0 -10 -7 -19 -15 -19 -8 0 -15 -7
-15 -15 0 -8 -7 -15 -15 -15 -10 0 -14 -9 -13 -25 2 -15 7 -24 15 -21 6 3 13
0 15 -6 4 -12 48 -1 48 12 0 5 -6 7 -12 5 -7 -3 -20 -1 -28 5 -17 11 -6 26 25
32 12 2 19 10 17 21 -2 9 2 17 8 17 6 0 9 -4 6 -8 -2 -4 5 -14 16 -21 19 -12
20 -11 13 6 -4 10 -8 25 -10 33 -1 8 0 9 2 3 3 -7 8 -13 13 -13 5 0 15 -3 23
-6 21 -8 133 102 129 127 -2 10 2 19 7 19 6 0 11 -5 11 -11 0 -7 14 2 30 20
18 18 28 37 24 44 -4 7 -4 9 1 5 9 -8 84 47 125 92 38 41 165 193 175 209 6
10 4 12 -6 6 -8 -5 -5 1 5 13 17 19 17 22 3 22 -10 0 -17 5 -17 11 0 6 7 9 15
5 9 -3 30 11 54 37 39 42 101 122 101 132 0 2 15 29 34 58 33 52 34 54 14 66
-11 7 -17 15 -13 19 3 3 10 0 15 -8 12 -20 59 2 56 26 -2 10 6 26 16 36 24 24
14 39 -51 70 -25 12 -67 39 -92 60 -26 21 -50 38 -55 38 -4 0 -64 38 -133 84
-230 153 -281 181 -281 157 0 -6 5 -11 12 -11 9 0 9 -3 1 -11 -17 -17 -245 6
-280 28 -14 9 -23 11 -23 4 0 -11 -48 -9 -127 4 -57 10 -54 22 7 30 28 4 47
11 44 16 -8 13 51 11 81 -3 21 -9 31 -9 47 1 11 7 17 8 13 2 -9 -15 8 -14 24
1 9 9 12 9 7 1 -8 -15 15 -22 89 -27 50 -4 56 -3 35 6 -14 6 -38 18 -55 25
-40 19 -215 33 -465 37 -180 3 -213 7 -273 26 -70 24 -77 30 -219 181 -38 41
-66 61 -97 70 -29 9 -46 10 -48 3 -5 -15 -140 3 -166 21 -12 8 -32 15 -44 15
-38 0 -237 211 -248 263 -20 93 -35 121 -106 201 -71 80 -72 84 -81 366 -8
264 -5 330 18 440 8 36 19 88 24 115 18 88 74 255 93 276 20 21 66 24 135 9
30 -7 64 -7 110 1 64 11 70 15 132 78 78 79 113 158 166 376 48 195 91 355
122 455 22 72 26 104 26 205 0 110 -3 125 -28 177 -15 32 -40 71 -56 87 -28
28 -90 48 -110 36 -6 -4 -26 -1 -45 5 l-35 12 0 66 c0 37 7 101 16 142 14 62
17 146 18 500 1 421 1 427 -26 580 -15 85 -30 202 -33 260 -10 172 -35 413
-48 450 -6 19 -17 42 -24 51 -7 8 -13 19 -13 23 0 4 -20 33 -44 64 -44 57 -86
138 -86 166 0 24 -32 86 -60 116 -14 15 -40 52 -59 83 -20 32 -48 63 -70 75
-20 11 -49 35 -66 52 -33 36 -179 134 -216 145 -13 4 -42 20 -64 35 -22 15
-51 31 -65 35 -14 4 -50 17 -80 30 -30 13 -81 33 -112 45 -32 12 -58 26 -58
30 0 5 -10 12 -22 16 -13 3 -66 27 -118 52 -52 24 -124 58 -160 75 -36 16 -81
39 -100 51 -19 11 -39 21 -45 22 -5 1 -61 14 -122 28 -156 36 -257 47 -483 51
-162 4 -206 1 -260 -13z m3513 -6779 c-7 -2 -19 -2 -25 0 -7 3 -2 5 12 5 14 0
19 -2 13 -5z m22 -22 c10 -17 -9 -18 -55 -5 l-45 12 47 1 c26 1 49 -3 53 -8z
m210 -11 c6 -1 13 -2 18 -1 4 0 7 -3 7 -8 0 -5 12 -12 27 -16 15 -3 30 -10 33
-14 12 -16 65 -44 94 -48 41 -6 53 -19 26 -28 -20 -6 -34 -3 -95 21 -29 12
-30 12 -158 13 -90 1 -118 4 -115 14 3 6 14 16 26 22 29 13 23 27 -15 40 -25
8 -15 10 56 9 47 0 91 -2 96 -4z m265 -126 c0 -2 -9 -4 -21 -4 -11 0 -18 4
-14 10 5 8 35 3 35 -6z m-1190 -34 c0 -5 -2 -10 -4 -10 -3 0 -8 5 -11 10 -3 6
-1 10 4 10 6 0 11 -4 11 -10z m90 -80 c0 -5 -2 -10 -4 -10 -3 0 -8 5 -11 10
-3 6 -1 10 4 10 6 0 11 -4 11 -10z m195 -10 c-3 -5 -11 -10 -16 -10 -6 0 -7 5
-4 10 3 6 11 10 16 10 6 0 7 -4 4 -10z m-55 -85 c0 -13 -32 -2 -57 20 l-28 25
43 -20 c23 -11 42 -23 42 -25z m1205 17 c-3 -3 -11 0 -18 7 -9 10 -8 11 6 5
10 -3 15 -9 12 -12z m-5585 4 c0 -3 -4 -8 -10 -11 -5 -3 -10 -1 -10 4 0 6 5
11 10 11 6 0 10 -2 10 -4z m5625 -36 c3 -5 1 -10 -4 -10 -6 0 -11 5 -11 10 0
6 2 10 4 10 3 0 8 -4 11 -10z m-5725 -30 c0 -5 -9 -10 -21 -10 -11 0 -17 5
-14 10 3 6 13 10 21 10 8 0 14 -4 14 -10z m-50 -40 c0 -5 -4 -10 -10 -10 -5 0
-10 5 -10 10 0 6 5 10 10 10 6 0 10 -4 10 -10z m4988 -287 c-10 -2 -28 -2 -40
0 -13 2 -5 4 17 4 22 1 32 -1 23 -4z m239 1 c-3 -3 -12 -4 -19 -1 -8 3 -5 6 6
6 11 1 17 -2 13 -5z m90 -5 c-14 -8 -22 -8 -30 0 -8 8 -3 11 19 11 25 -1 27
-2 11 -11z m146 -9 c-10 -9 -95 -1 -89 9 2 3 25 5 51 3 26 -2 43 -8 38 -12z
m-610 3 c-7 -2 -21 -2 -30 0 -10 3 -4 5 12 5 17 0 24 -2 18 -5z m257 -473 c0
-5 -4 -10 -10 -10 -5 0 -10 5 -10 10 0 6 5 10 10 10 6 0 10 -4 10 -10z m-495
-40 c3 -5 1 -10 -4 -10 -6 0 -11 5 -11 10 0 6 2 10 4 10 3 0 8 -4 11 -10z"/>
<path d="M6298 8677 c9 -17 29 -44 43 -58 15 -15 56 -87 92 -162 36 -74 77
-148 91 -165 15 -16 26 -34 26 -38 0 -5 18 -44 40 -86 38 -75 39 -79 41 -190
1 -62 5 -123 10 -136 5 -13 11 -70 13 -127 2 -56 7 -108 11 -115 10 -17 24
-115 34 -235 4 -55 13 -113 19 -129 16 -37 16 -710 0 -776 -6 -25 -14 -90 -17
-145 -4 -55 -9 -106 -12 -114 -3 -11 9 -17 44 -22 77 -12 153 -81 186 -169 22
-58 46 -207 44 -275 -2 -64 -21 -175 -43 -245 -11 -36 -31 -102 -45 -148 -14
-46 -25 -95 -25 -110 0 -14 -6 -44 -14 -67 -8 -22 -20 -67 -26 -100 -16 -77
-50 -197 -60 -210 -4 -5 -11 -23 -15 -40 -11 -40 -12 -44 -15 -52 -1 -5 -2
-11 -1 -15 0 -5 -3 -8 -8 -8 -5 0 -12 -9 -16 -19 -10 -33 -138 -157 -180 -175
-22 -9 -49 -22 -60 -29 -12 -7 -64 -13 -125 -14 l-105 -1 -19 -49 c-24 -61
-46 -170 -53 -253 -3 -36 -9 -70 -15 -77 -9 -12 -11 -77 -9 -327 2 -170 13
-218 60 -265 58 -56 110 -139 128 -201 12 -44 28 -70 75 -120 78 -84 141 -110
284 -119 77 -5 107 -10 121 -24 11 -9 25 -17 31 -17 13 0 121 -111 137 -140
16 -30 115 -92 138 -86 10 2 37 -2 59 -10 31 -10 97 -14 269 -14 125 0 239 -4
252 -9 14 -6 45 -13 68 -16 51 -7 128 -29 155 -43 11 -6 45 -23 77 -39 32 -15
66 -35 75 -44 9 -8 49 -36 87 -62 39 -26 75 -51 82 -57 7 -5 14 -10 17 -10 3
0 62 -39 132 -86 70 -47 144 -94 165 -104 20 -11 40 -25 42 -32 9 -22 33 17
127 207 228 466 361 909 432 1442 20 149 22 211 22 553 0 417 -10 543 -70 853
-259 1347 -1113 2496 -2336 3141 -111 58 -326 157 -435 199 l-42 16 17 -32z"/>
<path d="M2636 8521 c-1253 -641 -2125 -1796 -2390 -3168 -60 -308 -70 -436
-70 -853 0 -342 2 -404 22 -553 71 -532 198 -960 422 -1422 239 -491 595 -973
971 -1314 57 -52 116 -106 131 -120 15 -13 30 -22 34 -19 3 4 10 26 15 50 9
44 45 139 80 214 10 23 19 44 19 48 0 4 7 23 17 44 9 20 17 39 17 42 5 25 51
100 103 169 35 46 73 102 85 125 25 48 140 162 183 181 38 17 111 87 150 144
16 24 79 92 139 152 106 104 114 110 260 183 133 67 156 82 191 127 22 28 66
79 98 115 l57 63 0 127 0 126 -95 191 c-52 105 -95 194 -95 198 0 5 -11 32
-24 61 -12 29 -33 87 -45 128 -13 41 -27 84 -31 95 -21 52 -49 146 -60 200 -7
33 -23 92 -36 130 -13 39 -21 78 -18 87 3 10 -1 32 -9 50 -9 18 -15 40 -15 48
0 8 -2 121 -6 249 -4 170 -10 237 -19 243 -6 4 -35 8 -62 8 -43 0 -60 7 -118
46 -38 25 -83 66 -100 90 -49 69 -97 164 -97 191 0 13 -6 36 -14 52 -8 15 -17
45 -19 67 -3 21 -15 63 -26 92 -12 29 -21 61 -21 73 0 22 -61 203 -83 246 -8
15 -26 62 -40 103 -22 68 -24 89 -22 230 1 95 7 171 15 195 42 129 145 245
266 302 40 18 74 39 77 46 3 8 3 54 1 103 -2 58 2 110 11 147 12 45 15 124 15
343 -1 178 3 291 10 304 5 10 12 40 15 66 2 25 9 52 14 58 5 6 11 45 15 86 16
211 25 250 85 373 46 95 89 218 101 292 5 28 16 91 25 140 20 109 28 262 15
270 -5 3 -70 -26 -144 -64z"/>
<path d="M7510 1253 c0 -18 6 -23 25 -23 20 0 25 5 25 25 0 20 -4 24 -25 23
-19 -2 -25 -8 -25 -25z"/>
<path d="M7522 1108 c3 -7 -2 -18 -11 -25 -14 -11 -14 -12 5 -13 11 0 25 5 32
12 9 9 12 9 12 1 0 -22 -25 -28 -110 -25 -47 1 -90 -1 -97 -6 -7 -4 -14 -28
-16 -53 -2 -25 -7 -51 -11 -57 -4 -7 -1 -12 8 -12 9 0 16 5 16 11 0 6 7 3 15
-5 13 -13 20 -13 35 -3 11 6 20 15 20 20 0 4 -4 5 -10 2 -5 -3 -10 -1 -10 5 0
7 6 10 14 7 17 -7 69 31 61 44 -4 5 2 6 11 2 13 -5 16 -3 11 10 -4 12 -2 14
10 10 8 -3 18 -2 22 4 3 5 16 16 28 24 24 16 20 27 -16 47 -19 11 -22 11 -19
0z m-77 -108 c3 -5 1 -10 -4 -10 -6 0 -11 5 -11 10 0 6 2 10 4 10 3 0 8 -4 11
-10z"/>
<path d="M7287 1004 c-4 -4 -7 -18 -7 -31 0 -28 23 -27 28 1 4 20 -11 40 -21
30z"/>
<path d="M7273 923 c10 -15 78 -26 89 -15 6 6 5 13 -3 17 -8 6 -10 4 -4 -5 6
-10 3 -11 -16 -6 -52 16 -72 19 -66 9z"/>
<path d="M6996 674 c-26 -18 -17 -24 12 -8 13 6 20 14 15 17 -4 3 -17 -1 -27
-9z"/>
</g>
</svg>
